<svg xmlns="http://www.w3.org/2000/svg" width="64" height="64" viewBox="0 0 64 64" role="img" aria-label="CareAxis Cloud">
  <rect width="64" height="64" rx="14" fill="#e8f2ff"/>
  <rect x="5" y="5" width="54" height="54" rx="12" fill="#ffffff" stroke="#bdd7ff" stroke-width="2"/>
  <rect x="16" y="16" width="32" height="32" rx="9" fill="#176bff"/>
  <path d="M24 31.5c0-3.1 2-5.4 4.6-5.4 1.5 0 2.6.7 3.4 1.9.8-1.2 2-1.9 3.4-1.9 2.7 0 4.6 2.3 4.6 5.4 0 4-3.8 7.1-8 10.1-4.2-3-8-6.1-8-10.1Z" fill="none" stroke="#ffffff" stroke-width="2.6" stroke-linecap="round" stroke-linejoin="round"/>
  <path d="M25.8 33.1h4l1.6-3.4 2.1 6 1.4-2.6h3.3" fill="none" stroke="#9df0d1" stroke-width="2.4" stroke-linecap="round" stroke-linejoin="round"/>
</svg>
